<svg t="1587188726278" class="icon" viewBox="0 0 1024 1024" version="1.1" xmlns="http://www.w3.org/2000/svg" p-id="7434" width="200" height="200">
  <path d="M808.43776 501.32992l-6.15936 0.22016h-3.31776c-3.95776-0.22016-7.94112-0.88064-11.89888-1.54624a276.5312 276.5312 0 0 1-13.24032-2.8672c-1.3312 5.29408-0.44544 10.81344 0.22016 16.1024 0.66048 4.18816 1.54112 8.38144 2.432 12.5696 2.42688 10.58816 5.72928 20.95104 9.4976 31.31904a440.70912 440.70912 0 0 0 11.6736 28.22656l63.29344 116.67456-135.64416 269.74208H282.42944l-133.00224-270.6176 58.90048-83.1488a261.6832 261.6832 0 0 0 9.25696-16.96768l2.64192-5.73952a188.86144 188.86144 0 0 0 9.92256-26.4704c0.88064-3.52256 1.99168-7.05536 2.6624-10.79808 1.53088-7.28064 2.64192-14.34112 3.29728-21.61152l0.44032-5.51936c0.44032-7.28064 0.22528-14.55104-0.21504-21.8368-0.22528-2.64704-0.22528-5.2992-1.55136-7.72096-0.65024-0.88064-1.32096-1.7664-2.41664-2.42688-2.65728-1.54112-5.95456-1.32096-8.82688-1.32096-8.6016 0-17.2032 0.22016-25.80992 0-2.432 0-5.07392-0.22016-7.50592-0.44032-2.41664-0.4352-4.84864-0.88576-7.05024-1.54624-2.2016-0.66048-4.40832-1.31584-6.60992-2.2016l-4.63872-1.98656c-2.432-1.54112-4.6336-3.30752-6.8352-5.07392-1.32608-1.1008-2.432-2.432-3.75808-3.74784-1.09056-1.54112-2.2016-3.09248-3.08224-4.6336a51.90144 51.90144 0 0 1-3.08736-6.17984c-1.32096-3.08736-2.2016-6.4-3.08736-9.92256-0.6656-2.64704-1.10592-5.51424-1.55136-8.38144-0.21504-2.8672-0.44032-5.51424-0.65024-8.38144 0-2.86208 0.21504-5.51424 0.44032-8.38144 0.44032-2.86208 0.65536-5.50912 1.32096-8.38144l0.65536-2.86208 2.42688-6.17984 2.20672-3.968 2.43712-3.52768 2.64192-3.30752 2.85696-3.09248 3.0976-2.8672 3.30752-2.65728a73.43616 73.43616 0 0 1 8.82688-5.28896c1.97632-1.1008 4.19328-1.98656 6.4-2.87232a56.73472 56.73472 0 0 1 7.93088-2.64704l6.84032-1.76128 6.8352-1.32096c3.52256-0.44544 6.84032-0.88576 10.36288-1.10592 3.52256-0.21504 7.0656-0.21504 10.58816-0.21504l10.57792 0.66048 3.53792 0.44032c3.08736 0.66048 6.1696 1.1008 9.25696 1.98656l5.95968 1.54112c3.08224 0.88064 5.95456 1.98656 8.82688 3.08736 2.85696 1.32096 5.72928 2.64704 8.37632 4.18816l5.07392 3.08736c2.64704 1.7664 5.07904 3.52768 7.49056 5.29408l6.18496 5.29408 5.07392 5.28896c2.41664 2.65216 4.61824 5.2992 6.84032 7.94112 1.97632 2.64704 3.96288 5.51936 5.9392 8.38144 1.76128 2.8672 3.53792 5.73952 5.30432 8.6016 2.2016 3.968 4.17792 7.94624 5.95968 12.1344 5.72928 12.78976 9.48224 26.24512 12.5696 39.7056 1.09568 4.62848 1.97632 9.26208 2.64192 13.89056 0.67072 4.62848 1.32608 9.26208 1.99168 14.12096 0.65536 6.1696 1.32608 12.5696 1.536 18.96448 0.2304 4.61824 0.44032 9.48224 0.44032 14.11584a461.58336 461.58336 0 0 1-3.29728 60.43136c-2.432 19.17952-6.18496 38.15936-9.27232 57.12384-1.99168 12.57472-4.6336 25.35936-7.50592 37.7088 6.18496 16.5376 12.14464 33.08032 18.74944 49.39776 4.40832 10.80832 9.27232 21.39136 14.11584 31.98976 0.6656 1.54112 1.55136 3.08736 2.20672 4.61824 8.82688 18.5344 17.64352 37.26848 29.32736 54.49216h45.6704v-285.8496c-0.22528-2.42176-0.6656-4.61824-1.10592-7.06048-0.65536-2.42176-1.32608-4.61824-1.9968-7.05024a80.95232 80.95232 0 0 0-3.96288-9.27232c-4.40832-8.82176-9.48736-17.6384-15.21152-25.79968l-3.52768-4.40832-1.99168-1.98144-7.27552-6.8352v-35.072h225.61792v34.85184c-3.52256 3.31264-6.84032 6.39488-9.92256 9.92256-3.52256 4.40832-6.60992 9.2672-9.48736 14.11584l-2.64704 4.4032c-3.52768 6.60992-6.84032 13.45536-9.49248 20.51584-0.88064 2.20672-1.55136 4.4032-2.2016 6.60992a32.2816 32.2816 0 0 0-1.32608 6.4l-0.2304 1.98144v284.29824h35.73248l75.86816-147.328c-3.95776-12.79488-7.94112-25.58464-11.68384-38.37952-6.8352-23.37792-12.5696-47.19104-16.32256-71.01952-0.88064-6.60992-1.7664-13.0048-2.41664-19.63008a417.8432 417.8432 0 0 1-0.90112-16.96768c0-6.62016 0.22528-13.23008 0.90112-19.64032l0.65024-6.83008c1.55648-12.34944 3.75296-24.69888 7.51616-36.82816 1.53088-4.85888 3.08736-9.49248 4.8384-14.12096 5.07904-13.45536 11.01824-26.91072 18.52416-39.70048l2.64704-4.62848a182.74304 182.74304 0 0 1 9.27744-13.45536l5.05344-6.17472a151.56736 151.56736 0 0 1 8.1664-8.16128c2.22208-1.7664 4.41344-3.74784 6.6304-5.51936 2.2016-1.76128 4.62336-3.30752 7.04512-4.85376 2.44224-1.54112 5.07904-2.86208 7.72608-4.18816 2.87744-1.32096 5.51424-2.64704 8.3968-3.74784l7.48032-2.42688c3.09248-0.66048 5.95968-1.32608 9.05728-1.7664 2.87744-0.4352 5.94944-0.66048 8.82688-0.88064 2.86208-0.22016 5.72416-0.22016 8.82176-0.22016 2.87232 0.22016 5.94944 0.44032 8.82688 0.66048 2.87744 0.4352 5.95968 0.87552 8.82688 1.32096l3.09248 0.66048 6.37952 1.98656c3.30752 1.32608 6.39488 2.64704 9.70752 3.968 2.21184 1.1008 4.40832 2.42688 6.60992 3.52768 2.22208 1.32096 4.19328 2.64704 6.19008 4.18816 1.9712 1.54112 3.74784 3.09248 5.50912 4.85376 1.76128 1.7664 3.52768 3.74784 5.29408 5.73952l3.74272 5.50912 1.77152 3.30752 1.53088 3.30752 1.34144 3.3024 1.1008 3.30752 0.88064 3.30752 0.66048 3.30752 0.44032 3.52768 0.22016 3.52768v3.52768l-0.22016 3.52768-0.44032 3.52768-0.66048 3.30752-0.88064 3.30752-1.1008 3.30752c-1.11104 2.8672-2.22208 5.51424-3.53792 8.38144a102.05696 102.05696 0 0 1-5.51424 8.16128l-1.09568 1.32096-2.65216 2.64704-2.64192 2.432-2.6624 2.42176-2.8672 2.20672-3.08736 1.98144-3.0976 1.7664-3.3024 1.54112-3.74272 1.57696-6.16448 1.76128-5.95968 1.1008-3.08736 0.44032-0.67072 1.32608z m35.52256-22.27712c-6.17984 7.05536-12.79488 11.90912-22.07232 15.4368-7.72096 2.432-14.55104 3.30752-22.71744 3.09248-8.82176-0.66048-16.9728-2.432-25.5744-4.62848l-2.44224-1.10592c-3.96288 6.61504-2.41152 16.32256-1.53088 23.37792 3.96288 24.69888 13.66016 48.74752 23.80288 71.90016l62.40768 115.12832-133.65248 265.76384h-436.8896l-130.79552-266.20416 57.78944-81.60256c9.04192-15.22688 16.32256-30.87872 21.61152-47.43168 4.40832-14.55104 6.84032-29.11232 7.72096-44.31872 0.22528-7.94112 0-15.88224-0.88064-24.0384-0.67072-3.75296-1.99168-6.17984-5.28896-8.60672-2.2016-1.32096-4.19328-1.76128-6.8352-1.98144-12.5696-0.44032-24.91904 0.44032-37.48864-0.66048-6.4-1.10592-11.0336-2.42688-16.54784-5.07904a45.33248 45.33248 0 0 1-9.27232-7.72096c-2.85696-3.74784-4.61824-7.05536-6.38464-11.24864-4.6336-13.22496-5.51424-28.44672-1.99168-41.90208l2.20672-5.72928c5.07392-9.92768 11.68384-16.32256 22.27712-21.8368 2.64192-1.32096 5.28896-2.42688 8.16128-3.74784 17.2032-6.17472 34.84672-7.49568 53.15584-5.0688a103.8848 103.8848 0 0 1 22.93248 6.39488c7.49568 3.30752 13.67552 7.06048 20.07552 11.91424l5.95456 5.0688c13.45024 13.00992 22.26176 27.5712 29.33248 44.1088 18.9696 46.976 20.28544 98.36032 15.44192 147.76832-2.432 22.72256-6.8352 44.98432-10.59328 67.70688-1.97632 12.13952-4.6336 24.48384-7.27552 36.61312 7.71584 20.74112 15.0016 41.68704 24.0384 61.97248 3.75296 8.37632 7.51104 16.9728 11.47904 25.3696 9.04192 19.39968 18.52416 39.01952 30.87872 56.88832h52.70016v-290.24768c-0.88064-13.6704-7.93088-26.68032-14.7712-38.58432-3.968-6.84544-8.3712-13.6704-14.11584-19.40992l-6.1696-5.7344v-29.33248h216.58112v29.33248c-3.75296 3.52768-7.05024 6.61504-10.14784 10.58304-8.3712 11.24864-15.01184 23.81824-20.29056 36.61312-2.2016 5.7344-4.62848 12.12928-4.62848 18.304v288.48128h43.00288l77.85984-151.07584c-6.4-21.18656-13.45536-42.34752-18.73408-63.95392-7.0656-28.89728-13.4656-58.45504-12.8-88.22784 0.65536-18.51392 3.08224-36.60288 8.16128-54.46656a284.07296 284.07296 0 0 1 13.9008-36.8384c5.94944-12.79488 12.55936-24.704 21.39136-36.16768l5.0688-5.95456c10.368-11.24864 21.4016-19.40992 36.16768-25.36448l7.05536-2.20672c15.22688-3.74784 29.55264-3.74784 44.55424-0.22016l5.95456 1.76128c12.79488 4.6336 22.71744 11.02848 30.8736 20.95616l3.52768 5.29408c8.82176 16.1024 9.04192 34.18624 1.32096 50.50368-1.9968 3.74784-4.18816 7.05536-6.84032 10.368h-0.65536v-0.00512z" fill="#FCB929" p-id="7435"></path>
  <path d="M838.44096 443.54048c0 10.14784-3.30752 18.74944-9.92256 25.8048-6.6304 7.27552-15.232 10.80832-26.03008 10.80832-5.95968 0-13.24032-1.1008-22.28224-3.52768l-11.24864-5.0688-8.82176 5.0688c-6.38976 6.62016-9.49248 14.78144-9.49248 24.48896 0 21.1712 8.832 51.6096 26.26048 91.52512l59.10016 108.72832-125.27104 249.23648H297.19552l-122.18368-248.57088 51.16928-71.90016c22.27712-35.94752 33.52576-72.3456 33.52576-109.16864 0-7.28064-0.44032-13.68064-1.09568-19.85024a27.56608 27.56608 0 0 0-7.50592-15.44192c-5.95968-6.17984-14.11584-9.2672-24.69376-9.2672h-26.24c-9.04192 0-15.44192-1.98144-19.19488-5.7344-5.28896-5.73952-7.95136-15.44192-7.95136-29.55264 0-12.79488 5.30432-21.83168 15.67232-27.78624 10.35776-5.95968 22.93248-8.82176 37.92896-8.82176 36.83328 0 63.0784 20.5056 78.96064 61.75232 10.14784 27.34592 15.2064 58.0096 15.2064 91.97056 0 26.91072-2.41664 53.15072-7.27552 78.96064-2.2016 11.904-3.96288 22.28736-5.28896 30.8736-1.32608 8.6016-4.19328 22.49216-8.3712 41.68704l20.72576 55.36256a1392.384 1392.384 0 0 0 26.24512 57.56928c8.6016 17.19296 17.87392 32.84992 28.0064 46.75072h80.72704v-305.02912c0-11.01824-4.19328-24.25856-12.35456-39.47008-8.16128-15.22176-15.88224-26.02496-22.72256-32.42496v-6.39488h180.4032v6.39488c-5.2736 4.85888-13.2096 15.6672-22.26176 33.08544-9.0624 17.41824-12.78976 30.64832-12.78976 38.8096v305.02912h72.5504l85.37088-165.8624-17.64864-58.22464c-10.14784-38.8096-15.232-68.37248-15.232-89.10336 0-15.88224 1.55648-31.08864 4.86912-45.65504 3.08224-14.55616 8.6016-29.77792 15.88224-45.66016 18.51904-41.68192 43.65824-62.40768 74.97728-62.40768 14.35648 0 26.68544 3.52768 36.83328 10.80832 10.14784 7.2704 15.21664 17.2032 15.21664 30.21312h-0.21504v-0.00512z" fill="#FCB929" p-id="7436"></path>
  <path d="M516.20864 319.37024m-36.39296 0a36.39296 36.39296 0 1 0 72.78592 0 36.39296 36.39296 0 1 0-72.78592 0Z" fill="#FCB929" p-id="7437"></path>
  <path d="M569.1392 408.03328m-24.04352 0a24.04352 24.04352 0 1 0 48.08704 0 24.04352 24.04352 0 1 0-48.08704 0Z" fill="#FCB929" p-id="7438"></path>
  <path d="M433.28 257.39264m-19.40992 0a19.40992 19.40992 0 1 0 38.81984 0 19.40992 19.40992 0 1 0-38.81984 0Z" fill="#FCB929" p-id="7439"></path>
  <path d="M457.98912 381.12768m-12.79488 0a12.79488 12.79488 0 1 0 25.58976 0 12.79488 12.79488 0 1 0-25.58976 0Z" fill="#FCB929" p-id="7440"></path>
  <path d="M536.95488 190.1312a27.5712 27.5712 0 1 1-27.58656 27.56608 27.5712 27.5712 0 0 1 27.58656-27.56608z" fill="#FCB929" p-id="7441"></path>
  <path d="M480.04096 173.80352m-14.55616 0a14.55616 14.55616 0 1 0 29.11232 0 14.55616 14.55616 0 1 0-29.11232 0Z" fill="#FCB929" p-id="7442"></path>
  <path d="M577.73568 128.81408l0 0z" fill="#FCB929" p-id="7443"></path>
  <path d="M516.64896 58.01472m-14.55616 0a14.55616 14.55616 0 1 0 29.11232 0 14.55616 14.55616 0 1 0-29.11232 0Z" fill="#FCB929" p-id="7444"></path>
</svg>